<?xml version="1.0" encoding="UTF-8" standalone="no"?>
<!DOCTYPE svg  PUBLIC '-//W3C//DTD SVG 1.1//EN'  'http://www.w3.org/Graphics/SVG/1.1/DTD/svg11.dtd'>
<svg id="Logo" xmlns="http://www.w3.org/2000/svg" xml:space="preserve" viewBox="0 0 300 300" version="1.1" y="0px" x="0px" xmlns:xlink="http://www.w3.org/1999/xlink" enable-background="new 0 0 300 300">
<path d="m217.21 58h81.326l-4.1201-39h-156.32c-0.41406 0-0.83008 0.12207-1.2456 0.09668-1.28-0.163-2.57-0.097-3.87-0.097h-3.7969-0.05322-0.71436c-36.528 0-66.972 13.24-91.328 39.625-23.758 25.667-35.632 56.255-35.632 91.705 0 34.501 11.875 64.597 35.632 90.269 24.356 26.859 54.26 40.295 89.717 40.295 37.004 0 67.866-14.064 92.579-41.887 19.35-21.93 30.36-47.01 33.02-75.01h32.59v-39h-33.896c-4.35-25-15.64-48-33.89-67zm-15.28 89.62c-15.64-14.92-35.94-22.62-60.89-22.62h-3.7617-4.2969c-17.193 0-30.441-2.4512-39.752-7.8252-8.7158-5.3711-13.073-12.356-13.073-21.191 0-9.312 4.6201-17.878 13.875-25.817 9.1851-7.8867 20.588-12.176 34.2-12.936 22.684 0.37988 41.566 9.8106 56.845 28.289 14.44 17.555 21.92 38.695 21.92 63.405v2.1499c0 0.78809 0.0752 1.4473 0.05957 2.2295-1.64-1.91-3.27-3.88-5.13-5.68zm-155.35 2.74c0-6.5679 0.52832-12.887 1.5591-18.968 3.0317 4.105 6.5894 7.9849 10.705 11.627 14.923 13.731 33.607 20.469 56.047 20.469 2.27 0 4.4766-0.48535 6.6265-0.48535h6.2725c15.874 0 28.589 3.4102 38.142 9.9736 9.5488 7.165 14.323 16.181 14.323 26.925 0 11.701-5.1318 21.652-15.398 29.828-10.27 8.17-23.22 12.27-38.86 12.27h-5.1909c-2.0425 0-4.1831-0.25977-6.419-0.54395-16.133-3.1201-30.561-12.034-43.271-26.821-16.359-18.63-24.535-40.05-24.535-64.28z" fill="#2079BD"/>
</svg>
